<?xml version="1.0" encoding="UTF-8" standalone="no"?>
<!DOCTYPE svg PUBLIC "-//W3C//DTD SVG 1.1//EN" "http://www.w3.org/Graphics/SVG/1.1/DTD/svg11.dtd">
<svg xmlns="http://www.w3.org/2000/svg" version="1.1" viewBox="0.00 0.00 453.00 541.00">
<path fill="#354552" d="
  M 12.81 283.99
  C 9.49 287.16 6.63 290.75 3.38 293.93
  Q 1.95 295.34 1.96 293.33
  Q 2.11 266.57 1.87 239.47
  Q 1.78 228.72 2.10 219.91
  Q 2.15 218.35 3.22 217.22
  Q 6.79 213.42 10.59 209.83
  Q 27.21 194.10 44.60 177.36
  Q 71.89 151.09 160.44 66.08
  Q 167.83 58.98 174.93 52.28
  Q 202.57 26.21 227.58 0.99
  A 0.62 0.61 -44.7 0 1 228.45 0.99
  C 240.60 13.52 253.40 25.45 266.44 37.77
  Q 267.87 39.12 266.46 40.50
  C 242.47 63.97 218.25 87.33 194.48 110.05
  Q 187.12 117.09 179.94 123.80
  Q 144.11 157.28 115.49 185.24
  Q 93.40 206.82 77.83 221.46
  Q 70.41 228.44 63.37 235.27
  Q 38.18 259.73 12.81 283.99
  Z"
/>
<path fill="#354552" d="
  M 293.39 139.11
  C 291.61 137.33 290.30 135.07 290.33 132.55
  Q 290.66 97.80 291.02 63.35
  Q 291.03 62.80 291.44 63.17
  Q 297.62 68.67 302.63 73.39
  Q 324.56 94.08 351.12 120.34
  A 0.64 0.63 -48.2 0 1 351.16 121.19
  Q 349.98 122.65 348.69 123.86
  Q 330.79 140.55 313.79 157.78
  Q 313.06 158.51 312.32 157.79
  Q 302.95 148.67 293.39 139.11
  Z"
/>
<path fill="#354552" d="
  M 391.93 237.08
  Q 382.25 226.82 357.89 202.99
  Q 344.87 190.24 332.30 177.91
  Q 331.89 177.51 332.29 177.11
  L 369.94 139.52
  A 0.66 0.66 0.0 0 1 370.87 139.51
  L 444.25 210.69
  Q 444.67 211.10 444.26 211.51
  Q 434.21 221.57 424.09 231.38
  C 417.84 237.43 411.14 243.19 405.19 249.47
  A 0.86 0.86 0.0 0 1 403.96 249.48
  Q 397.89 243.40 391.93 237.08
  Z"
/>
<path fill="#354552" d="
  M 137.92 331.17
  Q 137.60 331.47 137.50 331.90
  Q 137.39 332.33 136.99 332.15
  Q 135.66 331.59 134.75 330.70
  C 125.59 321.81 116.25 312.82 107.12 303.65
  Q 102.08 298.58 97.26 294.18
  A 0.60 0.60 0.0 0 1 97.25 293.30
  L 253.13 144.29
  A 0.54 0.53 -44.6 0 1 253.88 144.29
  Q 269.88 160.32 284.52 174.93
  Q 288.44 178.84 292.70 182.64
  Q 293.39 183.26 292.72 183.90
  Q 274.78 201.04 256.39 218.64
  Q 199.38 273.21 137.92 331.17
  Z"
/>
<path fill="#354552" d="
  M 337.13 267.10
  Q 305.92 296.37 279.32 322.16
  C 254.42 346.31 229.05 370.01 203.76 394.03
  Q 202.20 395.51 200.78 396.59
  A 1.32 1.32 0.0 0 1 199.07 396.49
  L 161.67 360.29
  Q 160.86 359.51 161.57 358.64
  Q 164.26 355.30 166.95 352.70
  Q 179.69 340.40 195.37 325.50
  C 205.88 315.51 216.20 305.03 226.71 295.07
  C 239.05 283.37 251.05 271.51 263.35 259.85
  Q 286.96 237.45 310.09 214.52
  C 312.23 212.41 314.57 210.59 316.81 208.62
  Q 317.53 207.99 318.16 208.71
  C 321.02 211.95 323.74 215.16 326.93 218.10
  Q 341.74 231.77 356.69 247.24
  A 0.43 0.43 0.0 0 1 356.69 247.84
  Q 347.08 257.77 337.13 267.10
  Z"
/>
<path fill="#354552" d="
  M 451.16 324.00
  Q 450.44 325.16 449.37 326.11
  C 442.57 332.12 436.43 338.54 429.99 344.74
  Q 400.14 373.47 368.70 403.31
  Q 362.02 409.64 354.32 417.21
  C 340.71 430.61 327.10 443.22 313.58 456.27
  Q 271.23 497.15 229.62 537.12
  Q 228.42 538.28 227.41 539.78
  A 0.58 0.57 40.3 0 1 226.51 539.85
  Q 220.22 532.83 211.24 524.23
  Q 199.44 512.93 187.54 501.31
  Q 187.21 500.99 187.54 500.67
  Q 242.17 448.46 295.40 397.66
  Q 336.12 358.78 372.78 323.45
  C 381.34 315.20 390.21 306.14 398.95 297.85
  Q 413.70 283.86 427.85 269.56
  C 435.88 261.45 443.32 254.57 451.31 247.21
  A 0.43 0.43 0.0 0 1 452.03 247.52
  Q 451.96 280.56 451.48 320.49
  C 451.46 321.83 451.95 322.70 451.16 324.00
  Z"
/>
<path fill="#354552" d="
  M 124.29 365.42
  L 85.38 403.28
  A 0.36 0.36 0.0 0 1 84.87 403.27
  C 74.47 392.82 63.23 382.60 53.12 372.50
  Q 37.57 356.96 21.76 341.45
  C 17.82 337.59 13.34 334.03 9.38 329.93
  A 0.56 0.54 -43.9 0 1 9.41 329.15
  L 49.30 290.66
  A 0.64 0.64 0.0 0 1 50.20 290.68
  Q 65.54 306.21 81.22 321.25
  Q 103.36 342.49 124.30 363.91
  Q 125.05 364.67 124.29 365.42
  Z"
/>
<path fill="#354552" d="
  M 107.52 418.48
  C 117.48 409.31 126.75 399.68 135.70 390.89
  Q 138.86 387.79 142.65 385.00
  Q 143.09 384.67 143.48 385.05
  L 163.57 403.76
  Q 164.99 405.08 164.96 407.02
  Q 164.92 409.76 164.95 413.34
  Q 165.19 448.41 164.98 478.91
  A 0.47 0.47 0.0 0 1 164.19 479.24
  L 105.38 422.37
  Q 104.91 421.91 104.99 421.29
  C 105.18 419.79 106.53 419.39 107.52 418.48
  Z"
/>
</svg>
