<?xml version="1.0" encoding="UTF-8" standalone="no"?>
<!DOCTYPE svg PUBLIC "-//W3C//DTD SVG 1.1//EN" "http://www.w3.org/Graphics/SVG/1.1/DTD/svg11.dtd">
<svg xmlns="http://www.w3.org/2000/svg" version="1.1" viewBox="0.00 0.00 2530.00 541.00">
<path fill="#354552" d="
  M 12.81 283.99
  C 9.49 287.17 6.64 290.73 3.37 293.94
  Q 1.98 295.31 1.98 293.36
  C 2.03 273.65 2.15 253.82 1.82 234.02
  Q 1.70 226.76 2.19 219.52
  Q 2.28 218.18 3.46 216.95
  Q 8.17 212.07 12.75 207.75
  Q 26.77 194.55 44.50 177.50
  Q 74.29 148.86 102.59 121.58
  Q 125.61 99.39 147.34 78.57
  Q 167.69 59.08 189.38 38.52
  C 202.33 26.25 214.84 13.77 227.57 1.00
  A 0.65 0.64 -44.1 0 1 228.49 1.01
  Q 231.52 4.22 234.77 7.41
  Q 248.80 21.16 266.44 37.76
  Q 267.88 39.11 266.46 40.48
  Q 256.43 50.21 246.54 59.78
  Q 220.59 84.90 194.45 110.04
  Q 186.89 117.31 179.94 123.80
  Q 144.31 157.08 115.47 185.26
  Q 95.03 205.24 80.64 218.77
  Q 73.15 225.83 66.18 232.58
  Q 39.58 258.36 12.81 283.99
  Z"
/>
<path fill="#354552" d="
  M 293.27 138.95
  C 291.45 137.12 290.31 135.00 290.34 132.43
  Q 290.65 97.74 291.02 63.35
  Q 291.02 62.78 291.45 63.16
  Q 297.06 68.15 301.95 72.76
  Q 324.08 93.60 351.12 120.34
  A 0.63 0.62 -48.2 0 1 351.16 121.19
  Q 350.01 122.59 348.91 123.62
  Q 329.06 142.26 313.72 157.88
  A 0.92 0.91 -45.7 0 1 312.43 157.90
  Q 302.76 148.49 293.27 138.95
  Z"
/>
<path fill="#68686a" d="
  M 2474.63 192.59
  L 2474.63 413.66
  A 0.34 0.34 0.0 0 1 2474.29 414.00
  L 2408.85 414.00
  A 0.34 0.34 0.0 0 1 2408.51 413.66
  L 2408.51 192.59
  A 0.34 0.34 0.0 0 0 2408.17 192.25
  L 2354.09 192.25
  A 0.34 0.34 0.0 0 1 2353.75 191.91
  L 2353.75 126.09
  A 0.34 0.34 0.0 0 1 2354.09 125.75
  L 2529.42 125.75
  A 0.34 0.34 0.0 0 1 2529.76 126.09
  L 2529.76 191.91
  A 0.34 0.34 0.0 0 1 2529.42 192.25
  L 2474.97 192.25
  A 0.34 0.34 0.0 0 0 2474.63 192.59
  Z"
/>
<path fill="#354552" d="
  M 1197.63 199.93
  C 1182.61 193.02 1166.00 190.39 1149.74 193.64
  Q 1117.94 200.00 1100.35 225.81
  Q 1081.44 253.55 1088.05 286.14
  Q 1090.74 299.37 1099.02 312.26
  C 1107.81 325.97 1120.99 336.58 1136.45 342.38
  Q 1165.04 353.11 1194.07 341.37
  Q 1207.58 335.91 1218.36 325.14
  A 0.67 0.66 -44.7 0 1 1219.31 325.14
  L 1265.18 371.50
  A 0.34 0.33 -45.6 0 1 1265.18 371.97
  Q 1230.69 406.12 1182.15 412.48
  Q 1172.83 413.70 1162.24 413.58
  Q 1117.61 413.06 1081.29 387.89
  C 1050.73 366.72 1027.75 331.05 1022.20 294.22
  Q 1013.02 233.32 1047.06 185.93
  Q 1065.80 159.85 1094.43 143.81
  Q 1103.89 138.51 1112.90 135.26
  Q 1162.19 117.46 1211.42 134.18
  Q 1240.17 143.95 1264.96 167.80
  Q 1265.44 168.26 1264.97 168.73
  L 1219.34 214.55
  Q 1218.93 214.97 1218.48 214.58
  C 1211.67 208.67 1205.35 203.48 1197.63 199.93
  Z"
/>
<path fill="#354552" d="
  M 1346.92 414.00
  L 1281.44 414.00
  A 0.32 0.32 0.0 0 1 1281.12 413.68
  L 1281.12 126.83
  A 0.32 0.32 0.0 0 1 1281.44 126.51
  L 1346.92 126.50
  A 0.32 0.32 0.0 0 1 1347.24 126.82
  L 1347.24 216.49
  A 0.32 0.32 0.0 0 0 1347.78 216.72
  L 1439.88 126.58
  A 0.32 0.32 0.0 0 1 1440.10 126.49
  L 1534.19 126.50
  A 0.32 0.32 0.0 0 1 1534.42 127.05
  L 1387.73 270.27
  A 0.32 0.32 0.0 0 0 1387.74 270.73
  L 1534.41 413.45
  A 0.32 0.32 0.0 0 1 1534.18 414.00
  L 1439.69 414.00
  A 0.32 0.32 0.0 0 1 1439.47 413.91
  L 1347.78 324.27
  A 0.32 0.32 0.0 0 0 1347.24 324.50
  L 1347.24 413.68
  A 0.32 0.32 0.0 0 1 1346.92 414.00
  Z"
/>
<path fill="#354552" d="
  M 1605.85 348.00
  L 1709.82 348.00
  A 0.43 0.43 0.0 0 1 1710.25 348.43
  L 1710.25 413.57
  A 0.43 0.43 0.0 0 1 1709.82 414.00
  L 1539.72 414.00
  A 0.43 0.43 0.0 0 1 1539.29 413.57
  L 1539.29 126.92
  A 0.43 0.43 0.0 0 1 1539.72 126.49
  L 1604.99 126.51
  A 0.43 0.43 0.0 0 1 1605.42 126.94
  L 1605.42 347.57
  A 0.43 0.43 0.0 0 0 1605.85 348.00
  Z"
/>
<path fill="#68686a" d="
  M 2329.88 126.83
  L 2329.88 413.67
  A 0.33 0.33 0.0 0 1 2329.55 414.00
  L 2264.10 414.00
  A 0.33 0.33 0.0 0 1 2263.77 413.67
  L 2263.77 126.83
  A 0.33 0.33 0.0 0 1 2264.10 126.50
  L 2329.55 126.50
  A 0.33 0.33 0.0 0 1 2329.88 126.83
  Z"
/>
<path fill="#354552" d="
  M 659.93 302.82
  L 659.93 413.68
  A 0.32 0.32 0.0 0 1 659.61 414.00
  L 594.11 414.00
  A 0.32 0.32 0.0 0 1 593.79 413.68
  L 593.79 127.07
  A 0.32 0.32 0.0 0 1 594.11 126.75
  L 766.75 126.75
  A 0.32 0.32 0.0 0 1 767.07 127.07
  L 767.07 192.68
  A 0.32 0.32 0.0 0 1 766.75 193.00
  L 660.24 193.00
  A 0.32 0.32 0.0 0 0 659.92 193.32
  L 659.93 236.17
  A 0.32 0.32 0.0 0 0 660.25 236.49
  L 744.46 236.52
  A 0.32 0.32 0.0 0 1 744.78 236.84
  L 744.78 302.18
  A 0.32 0.32 0.0 0 1 744.46 302.50
  L 660.25 302.50
  A 0.32 0.32 0.0 0 0 659.93 302.82
  Z"
/>
<path fill="#354552" d="
  M 868.71 379.47
  L 857.14 413.78
  A 0.33 0.33 0.0 0 1 856.82 414.00
  L 787.52 414.00
  A 0.33 0.33 0.0 0 1 787.21 413.56
  L 884.77 126.97
  A 0.33 0.33 0.0 0 1 885.09 126.75
  L 947.18 126.75
  A 0.33 0.33 0.0 0 1 947.49 126.98
  L 1039.99 413.57
  A 0.33 0.33 0.0 0 1 1039.68 414.00
  L 970.76 414.00
  A 0.33 0.33 0.0 0 1 970.45 413.77
  L 959.26 379.48
  A 0.33 0.33 0.0 0 0 958.95 379.25
  L 869.03 379.25
  A 0.33 0.33 0.0 0 0 868.71 379.47
  Z
  M 891.62 312.55
  A 0.34 0.34 0.0 0 0 891.95 313.00
  L 937.59 313.00
  A 0.34 0.34 0.0 0 0 937.91 312.55
  L 915.67 244.44
  A 0.34 0.34 0.0 0 0 915.03 244.44
  L 891.62 312.55
  Z"
/>
<path fill="#354552" d="
  M 1797.06 193.32
  L 1797.07 236.18
  A 0.32 0.32 0.0 0 0 1797.39 236.50
  L 1892.63 236.50
  A 0.32 0.32 0.0 0 1 1892.95 236.82
  L 1892.95 302.18
  A 0.32 0.32 0.0 0 1 1892.63 302.50
  L 1797.39 302.50
  A 0.32 0.32 0.0 0 0 1797.07 302.82
  L 1797.06 347.68
  A 0.32 0.32 0.0 0 0 1797.38 348.00
  L 1914.92 348.00
  A 0.32 0.32 0.0 0 1 1915.24 348.32
  L 1915.24 413.68
  A 0.32 0.32 0.0 0 1 1914.92 414.00
  L 1731.31 414.00
  A 0.32 0.32 0.0 0 1 1730.99 413.68
  L 1730.99 127.58
  A 0.32 0.32 0.0 0 1 1731.31 127.26
  L 1914.92 126.75
  A 0.32 0.32 0.0 0 1 1915.24 127.07
  L 1915.24 192.68
  A 0.32 0.32 0.0 0 1 1914.92 193.00
  L 1797.38 193.00
  A 0.32 0.32 0.0 0 0 1797.06 193.32
  Z"
/>
<path fill="#354552" d="
  M 1999.30 342.44
  L 1999.30 413.72
  A 0.28 0.27 -90.0 0 1 1999.03 414.00
  L 1933.49 414.00
  Q 1933.24 414.00 1933.24 413.74
  L 1933.24 128.28
  Q 1933.24 127.77 1933.75 127.77
  Q 1984.75 127.66 1999.26 127.83
  C 2054.70 128.45 2109.60 165.46 2116.89 223.29
  C 2121.22 257.65 2107.30 289.47 2081.02 311.20
  A 0.51 0.51 0.0 0 0 2080.91 311.86
  L 2143.90 413.75
  A 0.17 0.16 74.4 0 1 2143.76 414.00
  L 2066.53 414.00
  A 0.54 0.53 73.3 0 1 2066.08 413.75
  L 2020.36 340.19
  Q 2020.08 339.74 2019.56 339.82
  Q 2009.81 341.30 2000.00 341.72
  Q 1999.30 341.75 1999.30 342.44
  Z
  M 2025.47 200.39
  Q 2013.75 194.98 1999.65 194.36
  Q 1999.30 194.35 1999.30 194.69
  L 1999.30 274.98
  Q 1999.30 275.22 1999.54 275.20
  Q 2013.19 274.32 2024.12 269.65
  C 2040.20 262.77 2055.20 247.39 2050.95 228.47
  C 2048.04 215.53 2037.51 205.95 2025.47 200.39
  Z"
/>
<path fill="#354552" d="
  M 391.78 237.05
  Q 374.59 218.80 357.07 202.19
  C 348.58 194.14 340.69 185.87 332.21 177.96
  A 0.52 0.52 0.0 0 1 332.19 177.21
  L 369.94 139.52
  A 0.66 0.66 0.0 0 1 370.87 139.51
  L 444.23 210.67
  Q 444.66 211.09 444.24 211.51
  Q 427.97 227.96 409.91 244.70
  Q 407.48 246.95 405.17 249.49
  A 0.78 0.77 43.3 0 1 404.05 249.52
  Q 397.58 243.22 391.78 237.05
  Z"
/>
<path fill="#354552" d="
  M 137.93 331.16
  Q 137.65 331.42 137.53 331.84
  Q 137.39 332.34 136.91 332.13
  Q 135.58 331.54 134.65 330.64
  Q 117.17 313.58 99.78 296.61
  Q 98.69 295.54 97.29 294.32
  A 0.71 0.71 0.0 0 1 97.27 293.28
  L 253.33 144.09
  A 0.31 0.26 46.3 0 1 253.72 144.14
  Q 268.75 159.18 284.42 174.82
  Q 288.43 178.83 292.68 182.62
  Q 293.39 183.25 292.70 183.92
  Q 272.96 202.82 254.86 220.11
  Q 182.21 289.52 137.93 331.16
  Z"
/>
<path fill="#354552" d="
  M 337.12 267.12
  Q 307.83 294.60 281.76 319.77
  Q 247.44 352.92 200.90 396.52
  A 1.35 1.33 -44.4 0 1 199.05 396.51
  Q 181.26 379.16 165.50 364.08
  Q 163.27 361.96 161.31 359.69
  Q 160.97 359.29 161.31 358.89
  Q 165.76 353.65 170.59 349.09
  Q 195.26 325.83 219.46 302.09
  Q 225.54 296.12 233.86 288.23
  C 243.36 279.21 252.91 269.70 262.14 260.96
  Q 286.99 237.45 311.14 213.53
  Q 313.69 211.00 317.13 208.48
  Q 317.64 208.11 318.05 208.58
  C 321.16 212.15 324.22 215.64 327.76 218.91
  Q 342.71 232.74 356.68 247.25
  A 0.44 0.43 45.5 0 1 356.68 247.86
  Q 347.04 257.81 337.12 267.12
  Z"
/>
<path fill="#354552" d="
  M 451.05 324.21
  Q 448.96 326.57 446.38 328.87
  Q 443.93 331.05 441.46 333.46
  Q 410.49 363.79 376.35 395.97
  C 359.07 412.27 341.46 429.91 326.12 444.37
  Q 311.05 458.58 294.08 475.04
  Q 262.78 505.38 229.35 537.38
  Q 228.33 538.36 227.41 539.76
  A 0.59 0.58 40.4 0 1 226.49 539.83
  Q 219.97 532.58 211.27 524.25
  Q 199.36 512.85 187.54 501.32
  Q 187.21 501.00 187.54 500.68
  Q 240.26 450.17 291.79 401.04
  Q 334.80 360.04 370.53 325.65
  Q 377.80 318.65 384.86 311.61
  C 395.89 300.60 406.98 290.41 417.74 279.59
  Q 434.57 262.64 451.23 247.20
  A 0.47 0.47 0.0 0 1 452.02 247.55
  Q 451.96 283.86 451.48 320.38
  C 451.47 321.62 451.98 323.16 451.05 324.21
  Z"
/>
<path fill="#354552" d="
  M 58.54 377.79
  C 42.06 361.97 26.71 345.62 9.62 330.34
  A 0.94 0.93 -46.0 0 1 9.60 328.97
  L 49.29 290.67
  Q 49.75 290.23 50.19 290.68
  Q 61.20 301.88 75.01 315.20
  Q 103.14 342.34 124.45 364.01
  A 0.89 0.89 0.0 0 1 124.43 365.27
  L 85.50 403.16
  Q 85.21 403.45 84.91 403.16
  Q 72.08 390.78 58.54 377.79
  Z"
/>
<path fill="#354552" d="
  M 105.46 420.19
  Q 109.19 417.11 112.13 414.16
  Q 126.59 399.63 137.45 389.30
  Q 139.80 387.06 142.63 384.99
  Q 143.07 384.66 143.47 385.03
  L 163.70 403.88
  A 4.32 4.27 21.8 0 1 165.08 407.05
  L 165.02 478.95
  A 0.46 0.46 0.0 0 1 164.24 479.29
  L 105.38 422.37
  A 1.47 1.46 47.2 0 1 105.46 420.19
  Z"
/>
</svg>
