<?xml version="1.0" encoding="UTF-8" standalone="no"?>
<!DOCTYPE svg PUBLIC "-//W3C//DTD SVG 1.1//EN" "http://www.w3.org/Graphics/SVG/1.1/DTD/svg11.dtd">
<svg xmlns="http://www.w3.org/2000/svg" version="1.1" viewBox="0.00 0.00 2530.00 541.00">
<path fill="#ffffff" d="
  M 263.43 43.43
  Q 253.53 53.16 244.32 62.06
  Q 214.40 90.97 185.47 118.47
  Q 175.70 127.76 164.91 137.91
  Q 147.58 154.20 129.20 171.80
  Q 121.76 178.93 114.88 185.76
  Q 97.92 202.59 80.75 218.61
  Q 72.84 226.00 66.28 232.42
  C 48.39 249.92 30.43 266.95 12.32 284.47
  C 9.20 287.49 6.47 290.90 3.38 293.90
  Q 3.03 294.23 2.58 294.38
  Q 2.00 294.56 2.00 293.96
  Q 2.02 270.93 1.98 248.21
  C 1.96 238.67 1.50 228.70 2.20 219.47
  Q 2.31 218.03 3.97 216.35
  C 13.43 206.84 22.87 198.38 32.25 189.16
  Q 39.21 182.33 46.65 175.27
  Q 65.68 157.24 84.57 138.91
  Q 91.17 132.50 98.25 125.94
  C 104.45 120.20 110.26 114.10 116.27 108.38
  C 141.95 83.94 167.89 58.80 193.97 34.10
  C 205.37 23.31 216.24 12.26 227.41 1.10
  A 0.78 0.76 45.0 0 1 228.50 1.11
  Q 244.71 17.34 261.46 33.02
  Q 264.02 35.41 266.77 38.30
  A 1.34 1.33 -44.4 0 1 266.74 40.17
  Q 265.11 41.78 263.43 43.43
  Z"
/>
<path fill="#ffffff" d="
  M 292.29 137.73
  C 291.01 136.39 290.36 134.61 290.37 132.74
  Q 290.62 99.71 291.04 63.54
  Q 291.05 62.85 291.57 63.30
  Q 296.97 67.99 302.12 72.86
  Q 326.78 96.24 351.08 120.28
  A 0.71 0.70 41.4 0 1 351.14 121.21
  Q 350.06 122.55 348.91 123.63
  Q 330.17 141.10 313.63 157.83
  A 0.89 0.88 -45.5 0 1 312.39 157.85
  Q 301.14 146.99 292.29 137.73
  Z"
/>
<path fill="#68686a" d="
  M 2474.63 192.59
  L 2474.63 413.66
  A 0.34 0.34 0.0 0 1 2474.29 414.00
  L 2408.85 414.00
  A 0.34 0.34 0.0 0 1 2408.51 413.66
  L 2408.51 192.59
  A 0.34 0.34 0.0 0 0 2408.17 192.25
  L 2354.09 192.25
  A 0.34 0.34 0.0 0 1 2353.75 191.91
  L 2353.75 126.09
  A 0.34 0.34 0.0 0 1 2354.09 125.75
  L 2529.42 125.75
  A 0.34 0.34 0.0 0 1 2529.76 126.09
  L 2529.76 191.91
  A 0.34 0.34 0.0 0 1 2529.42 192.25
  L 2474.97 192.25
  A 0.34 0.34 0.0 0 0 2474.63 192.59
  Z"
/>
<path fill="#ffffff" d="
  M 1134.17 341.49
  Q 1163.23 353.42 1193.20 341.76
  C 1202.90 337.98 1211.06 332.22 1218.45 325.15
  Q 1218.89 324.74 1219.31 325.16
  L 1265.11 371.46
  A 0.45 0.44 45.4 0 1 1265.11 372.09
  Q 1226.33 409.87 1172.80 413.28
  C 1125.71 416.27 1080.53 396.53 1051.42 359.56
  Q 1022.74 323.14 1020.42 277.23
  C 1018.68 242.89 1028.70 209.19 1049.84 182.17
  Q 1069.32 157.26 1096.39 142.74
  C 1119.20 130.52 1147.21 124.41 1173.93 126.48
  Q 1226.91 130.57 1265.15 168.08
  Q 1265.37 168.30 1265.16 168.52
  L 1219.30 214.57
  Q 1218.83 215.04 1218.35 214.58
  Q 1208.50 205.21 1200.22 201.18
  Q 1160.29 181.75 1122.47 204.27
  Q 1110.04 211.67 1100.18 226.04
  Q 1084.77 248.51 1086.51 275.36
  C 1088.40 304.51 1107.39 330.50 1134.17 341.49
  Z"
/>
<path fill="#ffffff" d="
  M 1346.90 414.00
  L 1281.44 414.00
  A 0.32 0.32 0.0 0 1 1281.12 413.68
  L 1281.12 126.82
  A 0.32 0.32 0.0 0 1 1281.44 126.50
  L 1346.91 126.50
  A 0.32 0.32 0.0 0 1 1347.23 126.82
  L 1347.22 216.52
  A 0.32 0.32 0.0 0 0 1347.76 216.75
  L 1439.90 126.58
  A 0.32 0.32 0.0 0 1 1440.12 126.49
  L 1534.16 126.50
  A 0.32 0.32 0.0 0 1 1534.39 127.05
  L 1387.71 270.27
  A 0.32 0.32 0.0 0 0 1387.72 270.73
  L 1534.38 413.45
  A 0.32 0.32 0.0 0 1 1534.15 414.00
  L 1439.72 414.00
  A 0.32 0.32 0.0 0 1 1439.50 413.91
  L 1347.77 324.24
  A 0.32 0.32 0.0 0 0 1347.23 324.47
  L 1347.22 413.68
  A 0.32 0.32 0.0 0 1 1346.90 414.00
  Z"
/>
<path fill="#ffffff" d="
  M 1605.81 348.00
  L 1709.82 348.00
  A 0.43 0.43 0.0 0 1 1710.25 348.43
  L 1710.25 413.57
  A 0.43 0.43 0.0 0 1 1709.82 414.00
  L 1539.71 414.00
  A 0.43 0.43 0.0 0 1 1539.28 413.57
  L 1539.29 126.93
  A 0.43 0.43 0.0 0 1 1539.72 126.50
  L 1604.95 126.50
  A 0.43 0.43 0.0 0 1 1605.38 126.93
  L 1605.38 347.57
  A 0.43 0.43 0.0 0 0 1605.81 348.00
  Z"
/>
<path fill="#68686a" d="
  M 2329.88 126.83
  L 2329.88 413.67
  A 0.33 0.33 0.0 0 1 2329.55 414.00
  L 2264.10 414.00
  A 0.33 0.33 0.0 0 1 2263.77 413.67
  L 2263.77 126.83
  A 0.33 0.33 0.0 0 1 2264.10 126.50
  L 2329.55 126.50
  A 0.33 0.33 0.0 0 1 2329.88 126.83
  Z"
/>
<path fill="#ffffff" d="
  M 659.88 302.82
  L 659.88 413.68
  A 0.32 0.32 0.0 0 1 659.56 414.00
  L 594.13 414.00
  A 0.32 0.32 0.0 0 1 593.81 413.68
  L 593.81 127.07
  A 0.32 0.32 0.0 0 1 594.13 126.75
  L 766.71 126.75
  A 0.32 0.32 0.0 0 1 767.03 127.07
  L 767.03 192.68
  A 0.32 0.32 0.0 0 1 766.71 193.00
  L 660.20 193.00
  A 0.32 0.32 0.0 0 0 659.88 193.32
  L 659.88 236.18
  A 0.32 0.32 0.0 0 0 660.20 236.50
  L 744.44 236.51
  A 0.32 0.32 0.0 0 1 744.76 236.83
  L 744.76 302.18
  A 0.32 0.32 0.0 0 1 744.44 302.50
  L 660.20 302.50
  A 0.32 0.32 0.0 0 0 659.88 302.82
  Z"
/>
<path fill="#ffffff" d="
  M 958.94 379.25
  L 869.03 379.25
  A 0.36 0.36 0.0 0 0 868.69 379.49
  L 857.12 413.76
  A 0.36 0.36 0.0 0 1 856.78 414.00
  L 787.58 414.00
  A 0.36 0.36 0.0 0 1 787.24 413.52
  L 884.79 126.99
  A 0.36 0.36 0.0 0 1 885.13 126.75
  L 947.14 126.75
  A 0.36 0.36 0.0 0 1 947.48 127.00
  L 1039.96 413.53
  A 0.36 0.36 0.0 0 1 1039.62 414.00
  L 970.80 414.00
  A 0.36 0.36 0.0 0 1 970.46 413.75
  L 959.28 379.50
  A 0.36 0.36 0.0 0 0 958.94 379.25
  Z
  M 891.59 312.59
  A 0.31 0.31 0.0 0 0 891.88 313.00
  L 937.65 313.00
  A 0.31 0.31 0.0 0 0 937.95 312.59
  L 915.66 244.29
  A 0.31 0.31 0.0 0 0 915.07 244.29
  L 891.59 312.59
  Z"
/>
<path fill="#ffffff" d="
  M 1797.03 193.31
  L 1797.03 236.19
  A 0.31 0.31 0.0 0 0 1797.34 236.50
  L 1892.61 236.50
  A 0.31 0.31 0.0 0 1 1892.92 236.81
  L 1892.92 302.19
  A 0.31 0.31 0.0 0 1 1892.61 302.50
  L 1797.34 302.50
  A 0.31 0.31 0.0 0 0 1797.03 302.81
  L 1797.03 347.69
  A 0.31 0.31 0.0 0 0 1797.34 348.00
  L 1914.92 348.00
  A 0.31 0.31 0.0 0 1 1915.23 348.31
  L 1915.23 413.69
  A 0.31 0.31 0.0 0 1 1914.92 414.00
  L 1731.31 414.00
  A 0.31 0.31 0.0 0 1 1731.00 413.69
  L 1731.00 127.59
  A 0.31 0.31 0.0 0 1 1731.31 127.28
  L 1914.92 126.77
  A 0.31 0.31 0.0 0 1 1915.23 127.08
  L 1915.23 192.69
  A 0.31 0.31 0.0 0 1 1914.92 193.00
  L 1797.34 193.00
  A 0.31 0.31 0.0 0 0 1797.03 193.31
  Z"
/>
<path fill="#ffffff" d="
  M 1999.27 342.44
  L 1999.28 413.49
  Q 1999.28 414.00 1998.76 414.00
  L 1933.75 414.00
  Q 1933.25 414.00 1933.25 413.50
  L 1933.25 128.30
  Q 1933.25 127.71 1933.85 127.71
  Q 1960.03 127.85 1985.31 127.69
  Q 1998.69 127.61 2005.25 128.01
  C 2035.18 129.81 2064.30 141.65 2086.02 162.69
  C 2129.63 204.95 2128.32 272.01 2081.07 311.18
  A 0.59 0.59 0.0 0 0 2080.95 311.95
  L 2143.78 413.60
  A 0.27 0.26 -15.7 0 1 2143.55 414.00
  L 2066.69 414.00
  Q 2066.26 414.00 2066.04 413.64
  L 2020.43 340.27
  Q 2020.09 339.72 2019.46 339.82
  Q 2009.82 341.28 1999.99 341.70
  Q 1999.27 341.73 1999.27 342.44
  Z
  M 2007.20 274.39
  C 2024.39 271.88 2043.04 262.28 2049.65 245.47
  C 2054.95 231.99 2049.31 217.95 2038.75 208.87
  Q 2023.43 195.70 1999.94 194.32
  Q 1999.27 194.28 1999.27 194.95
  L 1999.28 274.72
  Q 1999.28 275.34 1999.89 275.28
  Q 2003.66 274.91 2007.20 274.39
  Z"
/>
<path fill="#ffffff" d="
  M 357.88 202.93
  Q 344.94 190.75 332.18 177.70
  A 0.35 0.35 0.0 0 1 332.18 177.21
  L 369.92 139.52
  A 0.73 0.73 0.0 0 1 370.94 139.52
  L 444.32 210.75
  Q 444.79 211.20 444.32 211.64
  L 405.14 249.44
  A 0.92 0.92 0.0 0 1 403.84 249.42
  Q 394.06 239.45 384.34 229.30
  Q 370.52 214.84 357.88 202.93
  Z"
/>
<path fill="#ffffff" d="
  M 137.11 332.20
  Q 135.67 331.54 134.65 330.56
  Q 125.59 321.80 116.82 313.27
  C 110.42 307.04 104.03 300.36 97.39 294.29
  Q 96.77 293.73 97.37 293.15
  L 253.04 144.36
  Q 253.46 143.96 253.87 144.37
  L 292.42 182.70
  A 1.10 1.09 45.7 0 1 292.41 184.27
  Q 245.12 229.26 201.87 270.70
  Q 194.91 277.37 187.32 284.47
  Q 162.67 307.55 137.88 331.04
  Q 137.68 331.23 137.59 331.48
  Q 137.49 331.77 137.41 332.06
  A 0.22 0.22 0.0 0 1 137.11 332.20
  Z"
/>
<path fill="#ffffff" d="
  M 330.42 273.42
  Q 307.75 294.53 280.56 320.91
  Q 273.23 328.03 266.13 334.78
  Q 234.01 365.38 200.84 396.61
  A 1.22 1.22 0.0 0 1 199.15 396.59
  L 161.21 359.82
  A 0.60 0.59 -47.5 0 1 161.18 359.00
  C 168.88 350.18 177.53 342.61 185.98 334.52
  Q 202.30 318.91 218.41 303.07
  Q 225.00 296.59 232.82 289.20
  C 242.77 279.81 252.25 270.33 262.37 260.73
  Q 286.68 237.68 310.49 214.12
  C 312.43 212.20 314.55 210.59 316.59 208.79
  Q 317.56 207.93 318.39 208.93
  Q 322.54 213.97 327.32 218.42
  Q 342.49 232.57 356.57 247.08
  Q 356.97 247.50 356.57 247.92
  Q 344.27 260.53 330.42 273.42
  Z"
/>
<path fill="#ffffff" d="
  M 257.87 433.37
  C 271.60 420.36 285.51 406.78 299.46 393.58
  Q 348.67 347.04 396.88 299.89
  C 409.74 287.31 422.70 274.79 435.21 262.24
  C 440.38 257.06 445.99 252.31 451.28 247.17
  A 0.48 0.47 -22.3 0 1 452.09 247.50
  L 451.51 322.53
  Q 451.50 323.82 450.60 324.74
  C 447.52 327.94 444.10 330.80 440.91 333.94
  Q 430.25 344.46 422.05 352.29
  Q 393.52 379.56 363.97 407.97
  Q 351.78 419.69 340.98 429.97
  Q 309.68 459.78 280.54 488.16
  C 266.59 501.76 252.52 515.02 238.31 528.57
  Q 233.33 533.32 228.92 537.80
  C 228.33 538.40 227.95 539.10 227.47 539.79
  A 0.63 0.63 0.0 0 1 226.49 539.84
  Q 219.83 532.27 212.41 525.36
  Q 201.52 515.22 190.94 504.51
  Q 189.54 503.10 187.45 501.56
  Q 186.97 501.21 187.40 500.80
  Q 206.76 482.19 223.87 466.01
  C 235.24 455.26 246.14 444.47 257.87 433.37
  Z"
/>
<path fill="#ffffff" d="
  M 124.27 363.88
  A 1.07 0.97 46.0 0 1 124.32 365.32
  L 85.51 403.13
  A 0.49 0.49 0.0 0 1 84.82 403.12
  Q 74.16 392.67 63.12 382.27
  C 49.25 369.20 35.95 355.34 22.50 342.23
  C 18.28 338.11 13.98 334.50 9.87 330.40
  Q 9.01 329.55 9.88 328.71
  L 48.68 291.23
  Q 49.81 290.14 50.91 291.26
  Q 67.11 307.72 87.07 326.93
  Q 107.94 347.01 124.27 363.88
  Z"
/>
<path fill="#ffffff" d="
  M 105.40 420.31
  C 116.65 410.33 127.01 399.27 137.93 388.81
  Q 140.07 386.76 142.40 385.15
  A 0.97 0.96 -41.1 0 1 143.61 385.23
  Q 153.35 394.05 162.53 402.81
  C 164.02 404.22 165.08 405.83 165.07 407.95
  Q 165.01 444.75 165.01 478.80
  A 0.53 0.52 22.0 0 1 164.12 479.17
  L 105.36 422.35
  A 1.39 1.38 -43.9 0 1 105.40 420.31
  Z"
/>
</svg>
