<svg width="121" height="62" xmlns="http://www.w3.org/2000/svg">
    <g fill="#309DFF" fill-rule="evenodd">
        <path d="M100.973 49.481a1.746 1.746 0 0 0-2.662 2.261l.527.619c.034.039.065.078.098.117l.16.186s0-.003.003-.003c1.667 1.855 3.643 2.78 5.932 2.78 1.273 0 2.512-.2 3.636-.772 2.73-1.385 3.986-3.212 3.986-5.088v-.048c0-1.442-.295-2.797-2.025-3.377l-9.274-2.451.071-.148c.954-1.583 2.274-2.372 3.966-2.372 1.296 0 2.37.569 3.442 1.465.107.088.27.24.426.43.158.188.422.527.422.527a1.683 1.683 0 0 0 2.37.277 1.687 1.687 0 0 0 .279-2.372l-.445-.561c-1.632-2.115-3.85-3.241-6.494-3.241-1.284 0-2.585.346-3.9 1.037-2.395 1.538-3.59 3.161-3.59 4.872 0 1.262.382 2.138 1.548 2.945 1.028.71 3.507 1.264 9.038 2.603.418.104.893.216.893.216l-.284.41c-1.01 1.439-2.283 2.16-3.82 2.16-1.295 0-2.54-.502-3.39-1.351-.515-.57-.913-1.12-.913-1.12M81.861 9.372V8.279c0-.928-.754-1.684-1.682-1.684-.93 0-1.683.756-1.683 1.684v1.165h.001V21.5h-.001v1.093a1.684 1.684 0 1 0 3.365 0v-1.164h-.002V9.372h.002M86.154 6.712c1.05.271 1.575.778 1.575 1.525v.245c1.3-1.18 3.054-1.77 5.265-1.77 2.425 0 4.646.943 6.449 3.02 1.422 1.642 2.047 3.47 2.047 5.347v7.717c0 .8-.53 1.305-1.592 1.511h-.163c-1.061-.196-1.592-.742-1.592-1.641v-6.79c0-2.819-1.196-4.664-3.59-5.544a6.296 6.296 0 0 0-1.56-.224h-.179c-2.004 0-3.557 1.042-4.662 3.133-.283.618-.423 1.658-.423 3.12v6.37c0 .865-.53 1.391-1.592 1.576h-.114c-.889 0-1.435-.553-1.64-1.66V8.564c.129-1.237.72-1.851 1.77-1.851M106.64 15.322v.292c0 2.252 1.186 3.933 3.558 5.036.617.186 1.18.278 1.688.278h.36c2.198 0 3.86-1.181 4.987-3.542.173-.706.26-1.253.26-1.641v-.375c0-2.24-1.199-3.922-3.59-5.038-.749-.173-1.323-.258-1.723-.258h-.228c-2.2 0-3.86 1.165-4.988 3.494-.216.639-.324 1.224-.324 1.754m10.917 7.048c-1.332 1.235-3.082 1.852-5.248 1.852h-.488c-2.36 0-4.553-1.106-6.58-3.313-1.244-1.757-1.868-3.569-1.868-5.444 0-2.85 1.256-5.233 3.77-7.147 1.602-1.074 3.267-1.609 4.987-1.609 2.61 0 4.869 1.082 6.774 3.246 1.322 1.81 2.01 3.526 1.983 5.153-.008.51-.056 1.536-.064 2.048-.021 1.257 0 5.026 0 5.026 0 4.066-1.115 5.415-3.347 7.123-1.701 1.116-3.483 1.676-5.346 1.676-3.185 0-5.787-1.442-7.897-4.256-.563-.758-.616-1.187-.616-1.48v-.177c0-.79.588-1.45 1.409-1.45.81 0 2.149 1.678 2.149 1.678 1.32 1.656 2.973 2.483 4.955 2.483 2.373 0 5.423-1.22 5.423-5.402l.004-.007M4.885 43.35c0 2.806 1.247 5.17 3.739 7.098 1.538 1.04 3.178 1.56 4.923 1.56h.31c2.74 0 5.062-1.223 6.967-3.67 1.084-1.56 1.625-3.269 1.625-5.12 0-3.174-1.456-5.688-4.37-7.54-1.428-.822-2.897-1.233-4.403-1.233-2.903 0-5.313 1.269-7.228 3.803-1.042 1.493-1.563 3.195-1.563 5.102m8.791-12.268c4.095 0 7.516 1.895 10.268 5.686 1.246 2.156 1.87 4.328 1.87 6.513 0 4.055-1.833 7.423-5.493 10.11-2.078 1.32-4.258 1.981-6.53 1.981h-.244c-4.183 0-7.588-1.939-10.22-5.818a12.034 12.034 0 0 1-1.802-6.385c0-3.875 1.698-7.136 5.1-9.778 2.22-1.54 4.569-2.309 7.051-2.309M55.615 45.346H66.26c0-.4-.281-1.352-1.348-2.42-1.19-1.187-2.407-1.72-3.575-1.72h-.665c-1.78 0-3.26.855-4.387 2.629-.431.676-.625 1.199-.669 1.511m5.234-7.602c3.39 0 6.022 1.607 7.896 4.825a8.882 8.882 0 0 1 .974 4.11v.357c0 .996-.743 1.658-1.641 1.658H55.909c.314 1.073 1.197 1.996 2.648 2.78.856.323 1.656.484 2.404.484.868 0 1.89-.338 3.118-.908a.137.137 0 0 1 .028-.012c.988-.426 2.02.739 2.02 1.605v.18c0 1.276-1.587 2.337-4.825 2.549-.112.007-.34 0-.453 0-3.162 0-5.699-1.48-7.604-4.436-.77-1.397-1.154-2.86-1.154-4.384 0-3.23 1.457-5.905 4.566-7.705 1.517-.88 2.88-1.103 4.192-1.103M85.345 50.336c-.38-.299-1.298-.59-1.99.066l-.02.022c-1.323 1.116-2.622 1.672-3.902 1.672a5.99 5.99 0 0 1-2.176-.388c-2.285-1.15-3.426-2.823-3.426-5.02 0-.62.13-1.314.39-2.084.829-1.693 1.947-2.757 3.354-3.188-.003 0-.005 0-.007-.004a6.136 6.136 0 0 1 1.865-.28c1.28 0 2.579.557 3.901 1.673l.02.021c.693.654 1.61.366 1.99.066.612-.534.532-1.181.48-1.63-.204-1.223-1.464-2.312-4.26-3.217-.589-.19-1.624-.259-2.081-.259h-.488c-2.278 0-4.436 1.143-6.398 3.195-.005-.007.002.006-.002 0-1.408 1.62-2.111 3.503-2.111 5.64 0 1.884.522 3.787 1.884 5.475 1.897 2.35 4.244 3.346 6.627 3.346h.488c.457 0 1.166-.002 2.081-.257 2.922-.825 4.056-1.996 4.26-3.223.052-.443.132-1.095-.48-1.626M35.28 21.435v-7.3c0-1.106-.287-2.295-.99-3.492-1.645-2.803-4.069-4.11-6.97-4.11-1.908 0-3.423.485-4.551 1.461V2.781h.004V1.684a1.685 1.685 0 0 0-3.368 0v1.167h.002v18.654h-.002V22.6c0 .93.755 1.68 1.683 1.68.93 0 1.685-.75 1.685-1.68v-1.165h-.004v-5.773c0-1.136.07-1.936.211-2.405.846-2.198 2.29-3.295 4.34-3.295.508 0 1.006.07 1.493.209 2.07.888 3.104 2.329 3.104 4.321V22.6c0 .93.754 1.68 1.682 1.68a1.68 1.68 0 0 0 1.682-1.68v-1.165" />
        <path d="M96.44 52.15v-.004a.614.614 0 0 0-.08-.004h-.651l-.019.001h-.455c-.261-.008-.58-.039-.807-.115-.717-.234-1.104-1.02-1.104-2.322v-8.268h2.489a1.618 1.618 0 1 0 0-3.235h-2.49v-3.661h.002l.002-1.077c0-.908-.738-1.646-1.65-1.646-.913 0-1.65.738-1.65 1.646v.807c-.002 0-.004.003-.004.003v3.928h-1.555a1.618 1.618 0 0 0 0 3.235h1.555v8.627c0 .737.09 1.389.275 1.963 1.018 2.278 2.579 3.413 4.68 3.413h.24v.001h1.075a1.65 1.65 0 0 0 .147-3.292M59.88 21.447v-6.368c0-1.876-.625-3.705-2.048-5.346-1.802-2.078-4.023-3.021-6.449-3.021-2.201 0-3.948.583-5.247 1.754V8.4a1.68 1.68 0 0 0-1.682-1.681c-.93 0-1.684.75-1.684 1.68v1.165h.002v13.042c0 .925.75 1.672 1.672 1.672a1.67 1.67 0 0 0 1.674-1.672V16.36c0-1.462.142-2.502.422-3.12 1.105-2.09 2.66-3.133 4.664-3.133h.179c.455 0 .974.073 1.56.224 2.392.88 3.59 2.726 3.59 5.543v6.73c0 .925.75 1.672 1.674 1.672a1.67 1.67 0 0 0 1.672-1.672v-1.158M41.62 46.727c0 .392-.02.97-.275 1.675-.907 2.505-2.839 3.606-5.07 3.606h-.372c-.52 0-1.111-.04-1.724-.277-2.494-.943-3.621-2.836-3.621-5.132v-.309c0-.53.112-1.129.34-1.788 1.147-2.371 2.838-3.558 5.068-3.558h.245c.41 0 1.012.022 1.738.276 2.547.895 3.671 2.85 3.671 5.133v.374zm.7-6.545c-1.863-1.734-3.94-2.603-6.225-2.603-2.359 0-4.206.641-5.537 1.918V32.75c0-.927-.754-1.683-1.682-1.683-.93 0-1.684.756-1.684 1.683v13.296c0 2.287.636 4.275 1.903 5.963 2.057 2.242 4.288 3.364 6.695 3.364h.486c1.278 0 2.604-.35 3.979-1.038 3.154-1.907 4.73-4.53 4.73-7.866 0-2.33-.89-4.422-2.666-6.286z" />
        <path d="M50.03 39.427a1.659 1.659 0 1 0-3.316 0v14.45c0 .684.063 1.095-.13 1.722-.635 2.057-2.01 3.023-4.048 3.023-1.182 0-1.874 1.013-1.779 1.882.143.863.734 1.496 1.7 1.496h.308c.834-.034 1.739-.222 2.714-.569 3.033-1.475 4.548-3.806 4.548-7V40.503h.002v-1.077M76.136 21.562l-.498-.623-5.8-7.342c.576-.41 2.07-1.431 4.485-3.067.321-.17.605-.341.856-.505v-.002l.53-.333a1.677 1.677 0 0 0 .533-2.31 1.682 1.682 0 0 0-2.312-.535l-.133.085c-1.44.883-4.4 2.807-8.88 5.777V1.69a1.69 1.69 0 0 0-3.379 0v.122h-.001V22.33h.001v.278a1.69 1.69 0 0 0 3.38 0v-5.907l2.029-1.299 5.265 6.563c.216.315.424.59.623.84l.681.85a1.68 1.68 0 0 0 2.357.266 1.68 1.68 0 0 0 .263-2.36M17.027.002h-.82V0H1.75v.002h-.07C.75.002 0 .758 0 1.684c0 .927.749 1.678 1.676 1.678.002 0 .003.003.003.003h5.785v19.078h.002v.166a1.681 1.681 0 0 0 3.363 0V3.365h5.39v-.003h.808a1.679 1.679 0 1 0 0-3.36M40.87 9.372V8.279a1.683 1.683 0 1 0-3.365 0v1.165l.002 12.055h-.002v1.093a1.683 1.683 0 1 0 3.364 0V9.372M40.866 2.973c0 .93-.752 1.68-1.682 1.68a1.68 1.68 0 1 1 0-3.361c.93 0 1.682.754 1.682 1.681M81.848 2.964a1.681 1.681 0 1 1-3.362 0 1.681 1.681 0 0 1 3.362 0M49.016 31.984a1.652 1.652 0 1 1-3.302.003 1.652 1.652 0 0 1 3.302-.003" />
    </g>
</svg>
